<?xml version="1.0" encoding="UTF-8" standalone="no"?>
<!-- Created with Inkscape (http://www.inkscape.org/) -->

<svg
   xmlns:dc="http://purl.org/dc/elements/1.1/"
   xmlns:cc="http://creativecommons.org/ns#"
   xmlns:rdf="http://www.w3.org/1999/02/22-rdf-syntax-ns#"
   xmlns:svg="http://www.w3.org/2000/svg"
   xmlns="http://www.w3.org/2000/svg"
   xmlns:sodipodi="http://sodipodi.sourceforge.net/DTD/sodipodi-0.dtd"
   xmlns:inkscape="http://www.inkscape.org/namespaces/inkscape"
   width="208mm"
   height="297mm"
   viewBox="0 0 208 297"
   version="1.1"
   id="svg8"
   inkscape:version="0.92.4 (5da689c313, 2019-01-14)"
   sodipodi:docname="q5d_drawing.svg">
  <defs
     id="defs2">
    <marker
       inkscape:isstock="true"
       style="overflow:visible"
       id="marker5579"
       refX="0"
       refY="0"
       orient="auto"
       inkscape:stockid="Arrow2Lend">
      <path
         transform="matrix(-1.1,0,0,-1.1,-1.1,0)"
         d="M 8.7185878,4.0337352 -2.2072895,0.01601326 8.7185884,-4.0017078 c -1.7454984,2.3720609 -1.7354408,5.6174519 -6e-7,8.035443 z"
         style="fill:#000000;fill-opacity:1;fill-rule:evenodd;stroke:#000000;stroke-width:0.625;stroke-linejoin:round;stroke-opacity:1"
         id="path5577"
         inkscape:connector-curvature="0" />
    </marker>
    <inkscape:path-effect
       is_visible="true"
       id="path-effect5575"
       effect="spiro" />
    <marker
       inkscape:stockid="Arrow2Lend"
       orient="auto"
       refY="0"
       refX="0"
       id="marker5463"
       style="overflow:visible"
       inkscape:isstock="true"
       inkscape:collect="always">
      <path
         id="path5461"
         style="fill:#000000;fill-opacity:1;fill-rule:evenodd;stroke:#000000;stroke-width:0.625;stroke-linejoin:round;stroke-opacity:1"
         d="M 8.7185878,4.0337352 -2.2072895,0.01601326 8.7185884,-4.0017078 c -1.7454984,2.3720609 -1.7354408,5.6174519 -6e-7,8.035443 z"
         transform="matrix(-1.1,0,0,-1.1,-1.1,0)"
         inkscape:connector-curvature="0" />
    </marker>
    <inkscape:path-effect
       effect="spiro"
       id="path-effect5459"
       is_visible="true" />
    <inkscape:path-effect
       is_visible="true"
       id="path-effect5409"
       effect="spiro" />
    <marker
       inkscape:stockid="Arrow1Lstart"
       orient="auto"
       refY="0"
       refX="0"
       id="marker4923"
       style="overflow:visible"
       inkscape:isstock="true">
      <path
         id="path4921"
         d="M 0,0 5,-5 -12.5,0 5,5 Z"
         style="fill:#000000;fill-opacity:1;fill-rule:evenodd;stroke:#000000;stroke-width:1.00000003pt;stroke-opacity:1"
         transform="matrix(0.8,0,0,0.8,10,0)"
         inkscape:connector-curvature="0" />
    </marker>
    <marker
       inkscape:stockid="Arrow1Lstart"
       orient="auto"
       refY="0"
       refX="0"
       id="Arrow1Lstart"
       style="overflow:visible"
       inkscape:isstock="true">
      <path
         id="path4621"
         d="M 0,0 5,-5 -12.5,0 5,5 Z"
         style="fill:#000000;fill-opacity:1;fill-rule:evenodd;stroke:#000000;stroke-width:1.00000003pt;stroke-opacity:1"
         transform="matrix(0.8,0,0,0.8,10,0)"
         inkscape:connector-curvature="0" />
    </marker>
    <inkscape:path-effect
       effect="spiro"
       id="path-effect4619"
       is_visible="true" />
  </defs>
  <sodipodi:namedview
     id="base"
     pagecolor="#ffffff"
     bordercolor="#666666"
     borderopacity="1.0"
     inkscape:pageopacity="0.0"
     inkscape:pageshadow="2"
     inkscape:zoom="1"
     inkscape:cx="231.5"
     inkscape:cy="571.53392"
     inkscape:document-units="px"
     inkscape:current-layer="layer1"
     showgrid="false"
     showborder="true"
     inkscape:snap-smooth-nodes="true"
     inkscape:window-width="1920"
     inkscape:window-height="1001"
     inkscape:window-x="-9"
     inkscape:window-y="-9"
     inkscape:window-maximized="1"
     showguides="false" />
  <metadata
     id="metadata5">
    <rdf:RDF>
      <cc:Work
         rdf:about="">
        <dc:format>image/svg+xml</dc:format>
        <dc:type
           rdf:resource="http://purl.org/dc/dcmitype/StillImage" />
        <dc:title></dc:title>
      </cc:Work>
    </rdf:RDF>
  </metadata>
  <g
     inkscape:label="Layer 1"
     inkscape:groupmode="layer"
     id="layer1">
    <path
       style="opacity:1;fill:#008000;fill-opacity:1;stroke-width:0.23587696"
       d="m 105.8448,67.325604 a 30.95625,30.95625 0 0 0 -1.26247,0.902788 30.95625,30.95625 0 0 0 -2.32493,2.042252 30.95625,30.95625 0 0 0 -2.10893,2.263945 30.95625,30.95625 0 0 0 -1.872753,2.463416 30.95625,30.95625 0 0 0 -1.617472,2.638081 30.95625,30.95625 0 0 0 -1.345655,2.785877 30.95625,30.95625 0 0 0 -1.060917,2.9068 30.95625,30.95625 0 0 0 -0.765844,2.998266 30.95625,30.95625 0 0 0 -0.462505,3.059761 30.95625,30.95625 0 0 0 -0.154512,3.090251 30.95625,30.95625 0 0 0 0.07751,2.190049 30.95625,30.95625 0 0 0 0.373103,3.071646 30.95625,30.95625 0 0 0 0.677479,3.018934 30.95625,30.95625 0 0 0 0.975651,2.93678 30.95625,30.95625 0 0 0 1.264005,2.82411 30.95625,30.95625 0 0 0 1.539958,2.68408 30.95625,30.95625 0 0 0 1.799885,2.51716 30.95625,30.95625 0 0 0 2.042267,2.32492 30.95625,30.95625 0 0 0 2.26396,2.10891 30.95625,30.95625 0 0 0 1.93994,1.47485 30.95625,30.95625 0 0 0 1.26195,-0.90279 30.95625,30.95625 0 0 0 2.32493,-2.04174 30.95625,30.95625 0 0 0 2.10893,-2.26446 30.95625,30.95625 0 0 0 1.87277,-2.46341 30.95625,30.95625 0 0 0 1.61748,-2.63757 30.95625,30.95625 0 0 0 1.34566,-2.78639 30.95625,30.95625 0 0 0 1.06092,-2.9068 30.95625,30.95625 0 0 0 0.76586,-2.998267 30.95625,30.95625 0 0 0 0.46251,-3.059761 30.95625,30.95625 0 0 0 0.15451,-3.090251 30.95625,30.95625 0 0 0 -0.0775,-2.18953 30.95625,30.95625 0 0 0 -0.3731,-3.072164 30.95625,30.95625 0 0 0 -0.67748,-3.018936 30.95625,30.95625 0 0 0 -0.97566,-2.936772 30.95625,30.95625 0 0 0 -1.26401,-2.824117 30.95625,30.95625 0 0 0 -1.53997,-2.684074 30.95625,30.95625 0 0 0 -1.7999,-2.517158 30.95625,30.95625 0 0 0 -2.04227,-2.324407 30.95625,30.95625 0 0 0 -2.26396,-2.109433 30.95625,30.95625 0 0 0 -1.93942,-1.474846 z"
       id="path4556"
       inkscape:connector-curvature="0" />
    <path
       style="opacity:0.5;fill:#0000ff;fill-opacity:1;stroke-width:0.23587696"
       d="m 105.8448,67.325604 a 30.95625,30.95625 0 0 1 1.93942,1.474846 30.95625,30.95625 0 0 1 2.26396,2.109433 30.95625,30.95625 0 0 1 2.04227,2.324407 30.95625,30.95625 0 0 1 1.7999,2.517158 30.95625,30.95625 0 0 1 1.53997,2.684074 30.95625,30.95625 0 0 1 1.26401,2.824117 30.95625,30.95625 0 0 1 0.97566,2.936772 30.95625,30.95625 0 0 1 0.67748,3.018936 30.95625,30.95625 0 0 1 0.37311,3.072164 30.95625,30.95625 0 0 1 0.0775,2.18953 30.95625,30.95625 0 0 1 -0.15452,3.090251 30.95625,30.95625 0 0 1 -0.4625,3.059761 30.95625,30.95625 0 0 1 -0.76586,2.998267 30.95625,30.95625 0 0 1 -1.06092,2.9068 30.95625,30.95625 0 0 1 -1.34566,2.78639 30.95625,30.95625 0 0 1 -1.61748,2.63757 30.95625,30.95625 0 0 1 -1.87277,2.46341 30.95625,30.95625 0 0 1 -2.10893,2.26446 30.95625,30.95625 0 0 1 -2.32493,2.04174 30.95625,30.95625 0 0 1 -1.26195,0.90279 30.95625,30.95625 0 0 0 0.52348,0.3979 30.95625,30.95625 0 0 0 2.6381,1.61748 30.95625,30.95625 0 0 0 2.7859,1.34565 30.95625,30.95625 0 0 0 2.90681,1.06144 30.95625,30.95625 0 0 0 2.99829,0.76532 30.95625,30.95625 0 0 0 3.05978,0.46251 30.95625,30.95625 0 0 0 3.09027,0.15451 30.95625,30.95625 0 0 0 2.18955,-0.0775 30.95625,30.95625 0 0 0 3.07217,-0.37311 30.95625,30.95625 0 0 0 3.01896,-0.67748 30.95625,30.95625 0 0 0 2.93679,-0.97565 30.95625,30.95625 0 0 0 2.82413,-1.264 30.95625,30.95625 0 0 0 2.68409,-1.53944 30.95625,30.95625 0 0 0 2.51717,-1.80041 30.95625,30.95625 0 0 0 2.32494,-2.04174 30.95625,30.95625 0 0 0 2.10893,-2.26446 30.95625,30.95625 0 0 0 1.87276,-2.46341 30.95625,30.95625 0 0 0 1.61748,-2.63757 30.95625,30.95625 0 0 0 1.34566,-2.78639 30.95625,30.95625 0 0 0 1.06093,-2.9068 30.95625,30.95625 0 0 0 0.76585,-2.998267 30.95625,30.95625 0 0 0 0.46251,-3.059761 30.95625,30.95625 0 0 0 0.15451,-3.090251 30.95625,30.95625 0 0 0 -0.0775,-2.18953 30.95625,30.95625 0 0 0 -0.37313,-3.072164 30.95625,30.95625 0 0 0 -0.67749,-3.018936 30.95625,30.95625 0 0 0 -0.97565,-2.936772 30.95625,30.95625 0 0 0 -1.26402,-2.824117 30.95625,30.95625 0 0 0 -1.53996,-2.684074 30.95625,30.95625 0 0 0 -1.7999,-2.517158 30.95625,30.95625 0 0 0 -2.04175,-2.324407 30.95625,30.95625 0 0 0 -2.26447,-2.109433 30.95625,30.95625 0 0 0 -2.46343,-1.872753 30.95625,30.95625 0 0 0 -2.63758,-1.617472 30.95625,30.95625 0 0 0 -2.78641,-1.345655 30.95625,30.95625 0 0 0 -2.90682,-1.060918 30.95625,30.95625 0 0 0 -2.99828,-0.765844 30.95625,30.95625 0 0 0 -3.05978,-0.462502 30.95625,30.95625 0 0 0 -3.09027,-0.154514 30.95625,30.95625 0 0 0 -2.18955,0.07751 30.95625,30.95625 0 0 0 -3.07218,0.373104 30.95625,30.95625 0 0 0 -3.01895,0.677477 30.95625,30.95625 0 0 0 -2.93679,0.975651 30.95625,30.95625 0 0 0 -2.82414,1.264007 30.95625,30.95625 0 0 0 -2.68409,1.539957 30.95625,30.95625 0 0 0 -1.25471,0.897101 z"
       id="path4554"
       inkscape:connector-curvature="0" />
    <path
       style="opacity:0.5;fill:#ff0000;fill-opacity:1;stroke-width:0.23587696"
       d="m 87.841729,61.520792 a 30.95625,30.95625 0 0 0 -2.189531,0.07751 30.95625,30.95625 0 0 0 -3.072164,0.373104 30.95625,30.95625 0 0 0 -3.018938,0.677477 30.95625,30.95625 0 0 0 -2.936769,0.975651 30.95625,30.95625 0 0 0 -2.824118,1.264007 30.95625,30.95625 0 0 0 -2.684073,1.539957 30.95625,30.95625 0 0 0 -2.517161,1.799889 30.95625,30.95625 0 0 0 -2.32492,2.042252 30.95625,30.95625 0 0 0 -2.108917,2.263945 30.95625,30.95625 0 0 0 -1.872753,2.463416 30.95625,30.95625 0 0 0 -1.617472,2.638081 30.95625,30.95625 0 0 0 -1.345655,2.785877 30.95625,30.95625 0 0 0 -1.060918,2.9068 30.95625,30.95625 0 0 0 -0.765845,2.998266 30.95625,30.95625 0 0 0 -0.462505,3.059761 30.95625,30.95625 0 0 0 -0.154511,3.090251 30.95625,30.95625 0 0 0 0.07751,2.190049 30.95625,30.95625 0 0 0 0.373102,3.071646 30.95625,30.95625 0 0 0 0.677479,3.018939 30.95625,30.95625 0 0 0 0.975651,2.93678 30.95625,30.95625 0 0 0 1.264007,2.82411 30.95625,30.95625 0 0 0 1.539957,2.68408 30.95625,30.95625 0 0 0 1.799889,2.51716 30.95625,30.95625 0 0 0 2.042253,2.32492 30.95625,30.95625 0 0 0 2.263944,2.10891 30.95625,30.95625 0 0 0 2.463416,1.87275 30.95625,30.95625 0 0 0 2.637566,1.61748 30.95625,30.95625 0 0 0 2.786393,1.34565 30.95625,30.95625 0 0 0 2.9068,1.06144 30.95625,30.95625 0 0 0 2.998266,0.76532 30.95625,30.95625 0 0 0 3.05976,0.46251 30.95625,30.95625 0 0 0 3.090252,0.15451 30.95625,30.95625 0 0 0 2.18953,-0.0775 30.95625,30.95625 0 0 0 3.072164,-0.37311 30.95625,30.95625 0 0 0 3.018937,-0.67748 30.95625,30.95625 0 0 0 2.936771,-0.97565 30.95625,30.95625 0 0 0 2.824124,-1.264 30.95625,30.95625 0 0 0 2.68409,-1.53944 30.95625,30.95625 0 0 0 1.25523,-0.89762 30.95625,30.95625 0 0 1 -1.93994,-1.47485 30.95625,30.95625 0 0 1 -2.26396,-2.10891 30.95625,30.95625 0 0 1 -2.042267,-2.32492 30.95625,30.95625 0 0 1 -1.799885,-2.51716 30.95625,30.95625 0 0 1 -1.539958,-2.68408 30.95625,30.95625 0 0 1 -1.264005,-2.82411 30.95625,30.95625 0 0 1 -0.975651,-2.93678 30.95625,30.95625 0 0 1 -0.677479,-3.018939 30.95625,30.95625 0 0 1 -0.373103,-3.071646 30.95625,30.95625 0 0 1 -0.07751,-2.190049 30.95625,30.95625 0 0 1 0.154512,-3.090251 30.95625,30.95625 0 0 1 0.462505,-3.059761 30.95625,30.95625 0 0 1 0.765844,-2.998266 30.95625,30.95625 0 0 1 1.060917,-2.9068 30.95625,30.95625 0 0 1 1.345655,-2.785877 30.95625,30.95625 0 0 1 1.617472,-2.638081 30.95625,30.95625 0 0 1 1.872753,-2.463416 30.95625,30.95625 0 0 1 2.10893,-2.263945 30.95625,30.95625 0 0 1 2.32493,-2.042252 30.95625,30.95625 0 0 1 1.26247,-0.902788 30.95625,30.95625 0 0 0 -0.52401,-0.397907 30.95625,30.95625 0 0 0 -2.63758,-1.617472 30.95625,30.95625 0 0 0 -2.786407,-1.345655 30.95625,30.95625 0 0 0 -2.906796,-1.060918 30.95625,30.95625 0 0 0 -2.998266,-0.765844 30.95625,30.95625 0 0 0 -3.059761,-0.462502 30.95625,30.95625 0 0 0 -3.090251,-0.154514 z"
       id="path4552"
       inkscape:connector-curvature="0" />
    <path
       id="path4566"
       d="m 64.569738,141.93813 a 30.95625,30.95625 0 0 0 -1.262456,0.90279 30.95625,30.95625 0 0 0 -2.324922,2.04225 30.95625,30.95625 0 0 0 -2.108915,2.26395 30.95625,30.95625 0 0 0 -1.872754,2.46341 30.95625,30.95625 0 0 0 -1.617473,2.63808 30.95625,30.95625 0 0 0 -1.345654,2.78588 30.95625,30.95625 0 0 0 -1.060917,2.9068 30.95625,30.95625 0 0 0 -0.765845,2.99827 30.95625,30.95625 0 0 0 -0.462504,3.05976 30.95625,30.95625 0 0 0 -0.154512,3.09025 30.95625,30.95625 0 0 0 0.07751,2.19005 30.95625,30.95625 0 0 0 0.373104,3.07164 30.95625,30.95625 0 0 0 0.677478,3.01894 30.95625,30.95625 0 0 0 0.975651,2.93677 30.95625,30.95625 0 0 0 1.264006,2.82412 30.95625,30.95625 0 0 0 1.539957,2.68407 30.95625,30.95625 0 0 0 1.79989,2.51716 30.95625,30.95625 0 0 0 2.042253,2.32492 30.95625,30.95625 0 0 0 2.263944,2.10892 30.95625,30.95625 0 0 0 1.939934,1.47484 30.95625,30.95625 0 0 0 1.261939,-0.90278 30.95625,30.95625 0 0 0 2.324924,-2.04174 30.95625,30.95625 0 0 0 2.108916,-2.26446 30.95625,30.95625 0 0 0 1.872755,-2.46342 30.95625,30.95625 0 0 0 1.617474,-2.63756 30.95625,30.95625 0 0 0 1.345654,-2.78639 30.95625,30.95625 0 0 0 1.060918,-2.9068 30.95625,30.95625 0 0 0 0.765846,-2.99827 30.95625,30.95625 0 0 0 0.462504,-3.05976 30.95625,30.95625 0 0 0 0.154512,-3.09025 30.95625,30.95625 0 0 0 -0.07752,-2.18953 30.95625,30.95625 0 0 0 -0.373104,-3.07217 30.95625,30.95625 0 0 0 -0.677478,-3.01893 30.95625,30.95625 0 0 0 -0.975652,-2.93677 30.95625,30.95625 0 0 0 -1.264006,-2.82412 30.95625,30.95625 0 0 0 -1.539958,-2.68407 30.95625,30.95625 0 0 0 -1.799892,-2.51716 30.95625,30.95625 0 0 0 -2.042253,-2.32441 30.95625,30.95625 0 0 0 -2.263946,-2.10943 30.95625,30.95625 0 0 0 -1.939417,-1.47485 z"
       style="opacity:1;fill:#008000;fill-opacity:1;stroke-width:0.23587696"
       inkscape:connector-curvature="0" />
    <path
       id="path4570"
       d="m 46.566702,136.13331 a 30.95625,30.95625 0 0 0 -2.18953,0.0775 30.95625,30.95625 0 0 0 -3.072164,0.37311 30.95625,30.95625 0 0 0 -3.018938,0.67747 30.95625,30.95625 0 0 0 -2.936769,0.97566 30.95625,30.95625 0 0 0 -2.824118,1.264 30.95625,30.95625 0 0 0 -2.684073,1.53996 30.95625,30.95625 0 0 0 -2.517162,1.79989 30.95625,30.95625 0 0 0 -2.32492,2.04225 30.95625,30.95625 0 0 0 -2.108917,2.26395 30.95625,30.95625 0 0 0 -1.872752,2.46341 30.95625,30.95625 0 0 0 -1.617472,2.63808 30.95625,30.95625 0 0 0 -1.345655,2.78588 30.95625,30.95625 0 0 0 -1.060919,2.9068 30.95625,30.95625 0 0 0 -0.765844,2.99827 30.95625,30.95625 0 0 0 -0.462505,3.05976 30.95625,30.95625 0 0 0 -0.154511,3.09025 30.95625,30.95625 0 0 0 0.07752,2.19005 30.95625,30.95625 0 0 0 0.373102,3.07164 30.95625,30.95625 0 0 0 0.677479,3.01894 30.95625,30.95625 0 0 0 0.975651,2.93677 30.95625,30.95625 0 0 0 1.264007,2.82412 30.95625,30.95625 0 0 0 1.539957,2.68407 30.95625,30.95625 0 0 0 1.799889,2.51716 30.95625,30.95625 0 0 0 2.042253,2.32492 30.95625,30.95625 0 0 0 2.263944,2.10892 30.95625,30.95625 0 0 0 2.463416,1.87275 30.95625,30.95625 0 0 0 2.637565,1.61748 30.95625,30.95625 0 0 0 2.786393,1.34565 30.95625,30.95625 0 0 0 2.9068,1.06143 30.95625,30.95625 0 0 0 2.998266,0.76533 30.95625,30.95625 0 0 0 3.059761,0.46251 30.95625,30.95625 0 0 0 3.090251,0.15451 30.95625,30.95625 0 0 0 2.189531,-0.0775 30.95625,30.95625 0 0 0 3.072164,-0.3731 30.95625,30.95625 0 0 0 3.018937,-0.67748 30.95625,30.95625 0 0 0 2.936771,-0.97565 30.95625,30.95625 0 0 0 2.824117,-1.264 30.95625,30.95625 0 0 0 2.684074,-1.53945 30.95625,30.95625 0 0 0 1.255221,-0.89762 30.95625,30.95625 0 0 1 -1.939934,-1.47484 30.95625,30.95625 0 0 1 -2.263944,-2.10892 30.95625,30.95625 0 0 1 -2.042253,-2.32492 30.95625,30.95625 0 0 1 -1.79989,-2.51716 30.95625,30.95625 0 0 1 -1.539957,-2.68407 30.95625,30.95625 0 0 1 -1.264006,-2.82412 30.95625,30.95625 0 0 1 -0.975651,-2.93677 30.95625,30.95625 0 0 1 -0.677478,-3.01894 30.95625,30.95625 0 0 1 -0.373104,-3.07164 30.95625,30.95625 0 0 1 -0.07751,-2.19005 30.95625,30.95625 0 0 1 0.154512,-3.09025 30.95625,30.95625 0 0 1 0.462504,-3.05976 30.95625,30.95625 0 0 1 0.765845,-2.99827 30.95625,30.95625 0 0 1 1.060917,-2.9068 30.95625,30.95625 0 0 1 1.345654,-2.78588 30.95625,30.95625 0 0 1 1.617473,-2.63808 30.95625,30.95625 0 0 1 1.872754,-2.46341 30.95625,30.95625 0 0 1 2.108915,-2.26395 30.95625,30.95625 0 0 1 2.324922,-2.04225 30.95625,30.95625 0 0 1 1.262456,-0.90279 30.95625,30.95625 0 0 0 -0.523999,-0.39791 30.95625,30.95625 0 0 0 -2.637565,-1.61747 30.95625,30.95625 0 0 0 -2.786394,-1.34565 30.95625,30.95625 0 0 0 -2.906799,-1.06092 30.95625,30.95625 0 0 0 -2.998266,-0.76585 30.95625,30.95625 0 0 0 -3.059761,-0.4625 30.95625,30.95625 0 0 0 -3.090252,-0.15451 z"
       style="opacity:0.5;fill:#ff0000;fill-opacity:1;stroke-width:0.23587696"
       inkscape:connector-curvature="0" />
    <path
       inkscape:connector-curvature="0"
       style="opacity:1;fill:#008000;fill-opacity:1;stroke-width:0.23587696"
       d="m 143.94503,141.93813 a 30.95625,30.95625 0 0 0 -1.26247,0.90279 30.95625,30.95625 0 0 0 -2.32493,2.04225 30.95625,30.95625 0 0 0 -2.10893,2.26395 30.95625,30.95625 0 0 0 -1.87277,2.46341 30.95625,30.95625 0 0 0 -1.61748,2.63808 30.95625,30.95625 0 0 0 -1.34566,2.78588 30.95625,30.95625 0 0 0 -1.06092,2.9068 30.95625,30.95625 0 0 0 -0.76585,2.99827 30.95625,30.95625 0 0 0 -0.46251,3.05976 30.95625,30.95625 0 0 0 -0.15451,3.09025 30.95625,30.95625 0 0 0 0.0775,2.19005 30.95625,30.95625 0 0 0 0.37311,3.07164 30.95625,30.95625 0 0 0 0.67748,3.01894 30.95625,30.95625 0 0 0 0.97565,2.93677 30.95625,30.95625 0 0 0 1.26402,2.82412 30.95625,30.95625 0 0 0 1.53996,2.68407 30.95625,30.95625 0 0 0 1.7999,2.51716 30.95625,30.95625 0 0 0 2.04227,2.32492 30.95625,30.95625 0 0 0 2.26395,2.10892 30.95625,30.95625 0 0 0 1.93995,1.47484 30.95625,30.95625 0 0 0 1.26194,-0.90278 30.95625,30.95625 0 0 0 2.32494,-2.04174 30.95625,30.95625 0 0 0 2.10893,-2.26446 30.95625,30.95625 0 0 0 1.87276,-2.46342 30.95625,30.95625 0 0 0 1.61748,-2.63756 30.95625,30.95625 0 0 0 1.34566,-2.78639 30.95625,30.95625 0 0 0 1.06093,-2.9068 30.95625,30.95625 0 0 0 0.76585,-2.99827 30.95625,30.95625 0 0 0 0.46251,-3.05976 30.95625,30.95625 0 0 0 0.15451,-3.09025 30.95625,30.95625 0 0 0 -0.0775,-2.18953 30.95625,30.95625 0 0 0 -0.37311,-3.07217 30.95625,30.95625 0 0 0 -0.67748,-3.01893 30.95625,30.95625 0 0 0 -0.97566,-2.93677 30.95625,30.95625 0 0 0 -1.26401,-2.82412 30.95625,30.95625 0 0 0 -1.53997,-2.68407 30.95625,30.95625 0 0 0 -1.7999,-2.51716 30.95625,30.95625 0 0 0 -2.04226,-2.32441 30.95625,30.95625 0 0 0 -2.26396,-2.10943 30.95625,30.95625 0 0 0 -1.93942,-1.47485 z"
       id="path4583" />
    <path
       inkscape:connector-curvature="0"
       style="opacity:0.5;fill:#0000ff;fill-opacity:1;stroke-width:0.23587696"
       d="m 143.94503,141.93811 a 30.95625,30.95625 0 0 1 1.93942,1.47485 30.95625,30.95625 0 0 1 2.26396,2.10943 30.95625,30.95625 0 0 1 2.04226,2.32441 30.95625,30.95625 0 0 1 1.7999,2.51716 30.95625,30.95625 0 0 1 1.53997,2.68407 30.95625,30.95625 0 0 1 1.26401,2.82412 30.95625,30.95625 0 0 1 0.97566,2.93677 30.95625,30.95625 0 0 1 0.67748,3.01893 30.95625,30.95625 0 0 1 0.37311,3.07217 30.95625,30.95625 0 0 1 0.0775,2.18953 30.95625,30.95625 0 0 1 -0.15452,3.09025 30.95625,30.95625 0 0 1 -0.4625,3.05976 30.95625,30.95625 0 0 1 -0.76585,2.99827 30.95625,30.95625 0 0 1 -1.06093,2.9068 30.95625,30.95625 0 0 1 -1.34566,2.78639 30.95625,30.95625 0 0 1 -1.61748,2.63756 30.95625,30.95625 0 0 1 -1.87276,2.46342 30.95625,30.95625 0 0 1 -2.10893,2.26446 30.95625,30.95625 0 0 1 -2.32494,2.04174 30.95625,30.95625 0 0 1 -1.26194,0.90278 30.95625,30.95625 0 0 0 0.52348,0.39791 30.95625,30.95625 0 0 0 2.6381,1.61748 30.95625,30.95625 0 0 0 2.78589,1.34565 30.95625,30.95625 0 0 0 2.90682,1.06143 30.95625,30.95625 0 0 0 2.99828,0.76533 30.95625,30.95625 0 0 0 3.05978,0.46251 30.95625,30.95625 0 0 0 3.09027,0.15451 30.95625,30.95625 0 0 0 2.18954,-0.0775 30.95625,30.95625 0 0 0 3.07218,-0.3731 30.95625,30.95625 0 0 0 3.01896,-0.67748 30.95625,30.95625 0 0 0 2.93679,-0.97565 30.95625,30.95625 0 0 0 2.82413,-1.264 30.95625,30.95625 0 0 0 2.68409,-1.53945 30.95625,30.95625 0 0 0 2.51717,-1.8004 30.95625,30.95625 0 0 0 2.32493,-2.04174 30.95625,30.95625 0 0 0 2.10893,-2.26446 30.95625,30.95625 0 0 0 1.87277,-2.46342 30.95625,30.95625 0 0 0 1.61748,-2.63756 30.95625,30.95625 0 0 0 1.34566,-2.78639 30.95625,30.95625 0 0 0 1.06092,-2.9068 30.95625,30.95625 0 0 0 0.76585,-2.99827 30.95625,30.95625 0 0 0 0.46251,-3.05976 30.95625,30.95625 0 0 0 0.15451,-3.09025 30.95625,30.95625 0 0 0 -0.0775,-2.18953 30.95625,30.95625 0 0 0 -0.3731,-3.07217 30.95625,30.95625 0 0 0 -0.67748,-3.01893 30.95625,30.95625 0 0 0 -0.97566,-2.93677 30.95625,30.95625 0 0 0 -1.26401,-2.82412 30.95625,30.95625 0 0 0 -1.53997,-2.68407 30.95625,30.95625 0 0 0 -1.7999,-2.51716 30.95625,30.95625 0 0 0 -2.04175,-2.32441 30.95625,30.95625 0 0 0 -2.26447,-2.10943 30.95625,30.95625 0 0 0 -2.46343,-1.87276 30.95625,30.95625 0 0 0 -2.63758,-1.61747 30.95625,30.95625 0 0 0 -2.78641,-1.34565 30.95625,30.95625 0 0 0 -2.90682,-1.06092 30.95625,30.95625 0 0 0 -2.99828,-0.76585 30.95625,30.95625 0 0 0 -3.05978,-0.4625 30.95625,30.95625 0 0 0 -3.09026,-0.15451 30.95625,30.95625 0 0 0 -2.18955,0.0775 30.95625,30.95625 0 0 0 -3.07218,0.37311 30.95625,30.95625 0 0 0 -3.01895,0.67747 30.95625,30.95625 0 0 0 -2.93679,0.97566 30.95625,30.95625 0 0 0 -2.82414,1.264 30.95625,30.95625 0 0 0 -2.68408,1.53996 30.95625,30.95625 0 0 0 -1.25471,0.8971 z"
       id="path4585" />
    <flowRoot
       xml:space="preserve"
       id="flowRoot4589"
       style="font-style:normal;font-weight:normal;font-size:40px;line-height:1.25;font-family:sans-serif;letter-spacing:0px;word-spacing:0px;fill:#000000;fill-opacity:1;stroke:none"
       transform="scale(0.26458333)"><flowRegion
         id="flowRegion4591"><rect
           id="rect4593"
           width="177"
           height="75"
           x="26"
           y="737.51971" /></flowRegion><flowPara
         id="flowPara4595" /></flowRoot>    <text
       xml:space="preserve"
       style="font-style:normal;font-weight:normal;font-size:10.58333302px;line-height:1.25;font-family:sans-serif;letter-spacing:0px;word-spacing:0px;fill:#000000;fill-opacity:1;stroke:none;stroke-width:0.26458332"
       x="74.347961"
       y="218.41875"
       id="text4599"><tspan
         sodipodi:role="line"
         id="tspan4597"
         x="74.347961"
         y="218.41875"
         style="stroke-width:0.26458332">$A \cap B$</tspan></text>
    <path
       style="fill:none;fill-opacity:1;stroke:#000000;stroke-width:1.05866897;stroke-linecap:butt;stroke-linejoin:miter;stroke-miterlimit:4;stroke-dasharray:none;stroke-opacity:1;marker-end:url(#marker5463)"
       d="m 12.70001,123.43329 c 0.613419,6.58377 -0.114561,13.28966 -2.126487,19.58843 -3.3972478,10.63582 -10.52558039,20.03927 -19.8483319,26.18324"
       id="path5457"
       inkscape:connector-curvature="0"
       inkscape:path-effect="#path-effect5459"
       inkscape:original-d="m 12.70001,123.43329 c -4.5940255,12.17027 -8.8522511,9.88201 -2.126487,19.58843 9.425136,13.60207 124.772467,59.73528 -19.8483319,26.18324"
       transform="matrix(0.9987656,0,0,-1.0006012,79.329297,331.8983)"
       sodipodi:nodetypes="csc" />
    <path
       sodipodi:nodetypes="csc"
       transform="matrix(-0.9987656,0,0,-1.0006012,128.79559,331.63372)"
       inkscape:original-d="m 12.70001,123.43329 c -4.5940255,12.17027 -8.8522511,9.88201 -2.126487,19.58843 9.425136,13.60207 124.772467,59.73528 -19.8483319,26.18324"
       inkscape:path-effect="#path-effect5575"
       inkscape:connector-curvature="0"
       id="path5573"
       d="m 12.70001,123.43329 c 0.613419,6.58377 -0.114561,13.28966 -2.126487,19.58843 -3.3972478,10.63582 -10.52558039,20.03927 -19.8483319,26.18324"
       style="fill:none;fill-opacity:1;stroke:#000000;stroke-width:1.05866897;stroke-linecap:butt;stroke-linejoin:miter;stroke-miterlimit:4;stroke-dasharray:none;stroke-opacity:1;marker-end:url(#marker5579)" />
    <text
       xml:space="preserve"
       style="font-style:normal;font-weight:normal;font-size:10.58333302px;line-height:1.25;font-family:sans-serif;letter-spacing:0px;word-spacing:0px;fill:#000000;fill-opacity:1;stroke:none;stroke-width:0.26458332"
       x="66.939621"
       y="94.858337"
       id="text6673"><tspan
         sodipodi:role="line"
         id="tspan6671"
         x="66.939621"
         y="94.858337"
         style="stroke-width:0.26458332">$A$</tspan></text>
    <text
       xml:space="preserve"
       style="font-style:normal;font-weight:normal;font-size:10.58333302px;line-height:1.25;font-family:sans-serif;letter-spacing:0px;word-spacing:0px;fill:#000000;fill-opacity:1;stroke:none;stroke-width:0.26458332"
       x="125.9417"
       y="93.535423"
       id="text6677"><tspan
         sodipodi:role="line"
         id="tspan6675"
         x="125.9417"
         y="93.535423"
         style="stroke-width:0.26458332">$B$</tspan></text>
  </g>
</svg>
