<?xml version="1.0" encoding="UTF-8" standalone="no"?>
<!-- Created with Inkscape (http://www.inkscape.org/) -->

<svg
   xmlns:dc="http://purl.org/dc/elements/1.1/"
   xmlns:cc="http://creativecommons.org/ns#"
   xmlns:rdf="http://www.w3.org/1999/02/22-rdf-syntax-ns#"
   xmlns:svg="http://www.w3.org/2000/svg"
   xmlns="http://www.w3.org/2000/svg"
   xmlns:sodipodi="http://sodipodi.sourceforge.net/DTD/sodipodi-0.dtd"
   xmlns:inkscape="http://www.inkscape.org/namespaces/inkscape"
   width="210mm"
   height="297mm"
   viewBox="0 0 210 297"
   version="1.1"
   id="svg8"
   inkscape:version="0.92.4 (5da689c313, 2019-01-14)"
   sodipodi:docname="q5d_drawing.svg">
  <defs
     id="defs2" />
  <sodipodi:namedview
     id="base"
     pagecolor="#ffffff"
     bordercolor="#666666"
     borderopacity="1.0"
     inkscape:pageopacity="0.0"
     inkscape:pageshadow="2"
     inkscape:zoom="1"
     inkscape:cx="235.5"
     inkscape:cy="531.53392"
     inkscape:document-units="px"
     inkscape:current-layer="layer1"
     showgrid="false"
     showborder="false"
     inkscape:snap-smooth-nodes="true"
     inkscape:window-width="1920"
     inkscape:window-height="1001"
     inkscape:window-x="-9"
     inkscape:window-y="-9"
     inkscape:window-maximized="1" />
  <metadata
     id="metadata5">
    <rdf:RDF>
      <cc:Work
         rdf:about="">
        <dc:format>image/svg+xml</dc:format>
        <dc:type
           rdf:resource="http://purl.org/dc/dcmitype/StillImage" />
        <dc:title></dc:title>
      </cc:Work>
    </rdf:RDF>
  </metadata>
  <g
     inkscape:label="Layer 1"
     inkscape:groupmode="layer"
     id="layer1">
    <path
       style="opacity:1;fill:#008000;fill-opacity:1;stroke-width:0.23587696"
       d="m 30.70305,67.325604 a 30.95625,30.95625 0 0 0 -1.262455,0.902788 30.95625,30.95625 0 0 0 -2.324923,2.042252 30.95625,30.95625 0 0 0 -2.108915,2.263945 30.95625,30.95625 0 0 0 -1.872754,2.463416 30.95625,30.95625 0 0 0 -1.617472,2.638081 30.95625,30.95625 0 0 0 -1.345655,2.785877 30.95625,30.95625 0 0 0 -1.060917,2.9068 30.95625,30.95625 0 0 0 -0.765844,2.998266 30.95625,30.95625 0 0 0 -0.462505,3.059761 30.95625,30.95625 0 0 0 -0.154512,3.090251 30.95625,30.95625 0 0 0 0.07751,2.190049 30.95625,30.95625 0 0 0 0.373103,3.071646 30.95625,30.95625 0 0 0 0.677479,3.018934 30.95625,30.95625 0 0 0 0.975651,2.93678 30.95625,30.95625 0 0 0 1.264005,2.82411 30.95625,30.95625 0 0 0 1.539958,2.68408 30.95625,30.95625 0 0 0 1.79989,2.51716 30.95625,30.95625 0 0 0 2.042252,2.32492 30.95625,30.95625 0 0 0 2.263945,2.10891 30.95625,30.95625 0 0 0 1.939933,1.47485 30.95625,30.95625 0 0 0 1.261939,-0.90279 30.95625,30.95625 0 0 0 2.324924,-2.04174 30.95625,30.95625 0 0 0 2.108916,-2.26446 30.95625,30.95625 0 0 0 1.872755,-2.46341 30.95625,30.95625 0 0 0 1.617473,-2.63757 30.95625,30.95625 0 0 0 1.345655,-2.78639 30.95625,30.95625 0 0 0 1.060918,-2.9068 30.95625,30.95625 0 0 0 0.765851,-2.998267 30.95625,30.95625 0 0 0 0.462504,-3.059761 30.95625,30.95625 0 0 0 0.154512,-3.090251 30.95625,30.95625 0 0 0 -0.07752,-2.18953 A 30.95625,30.95625 0 0 0 43.205653,87.215347 30.95625,30.95625 0 0 0 42.528174,84.196411 30.95625,30.95625 0 0 0 41.552523,81.259639 30.95625,30.95625 0 0 0 40.288516,78.435522 30.95625,30.95625 0 0 0 38.748558,75.751448 30.95625,30.95625 0 0 0 36.948667,73.23429 30.95625,30.95625 0 0 0 34.906413,70.909883 30.95625,30.95625 0 0 0 32.642467,68.80045 30.95625,30.95625 0 0 0 30.70305,67.325604 Z"
       id="path4556"
       inkscape:connector-curvature="0" />
    <path
       style="opacity:0.5;fill:#0000ff;fill-opacity:1;stroke-width:0.23587696"
       d="m 30.70305,67.325604 a 30.95625,30.95625 0 0 1 1.939417,1.474846 30.95625,30.95625 0 0 1 2.263946,2.109433 30.95625,30.95625 0 0 1 2.042254,2.324407 30.95625,30.95625 0 0 1 1.799891,2.517158 30.95625,30.95625 0 0 1 1.539958,2.684074 30.95625,30.95625 0 0 1 1.264007,2.824117 30.95625,30.95625 0 0 1 0.975651,2.936772 30.95625,30.95625 0 0 1 0.677479,3.018936 30.95625,30.95625 0 0 1 0.373104,3.072164 30.95625,30.95625 0 0 1 0.07752,2.18953 30.95625,30.95625 0 0 1 -0.154513,3.090251 30.95625,30.95625 0 0 1 -0.462504,3.059761 30.95625,30.95625 0 0 1 -0.765845,2.998267 30.95625,30.95625 0 0 1 -1.060918,2.9068 30.95625,30.95625 0 0 1 -1.345655,2.78639 30.95625,30.95625 0 0 1 -1.617473,2.63757 30.95625,30.95625 0 0 1 -1.872755,2.46341 30.95625,30.95625 0 0 1 -2.108917,2.26446 30.95625,30.95625 0 0 1 -2.324924,2.04174 30.95625,30.95625 0 0 1 -1.261939,0.90279 30.95625,30.95625 0 0 0 0.523482,0.3979 30.95625,30.95625 0 0 0 2.638084,1.61748 30.95625,30.95625 0 0 0 2.785878,1.34565 30.95625,30.95625 0 0 0 2.906801,1.06144 30.95625,30.95625 0 0 0 2.998268,0.76532 30.95625,30.95625 0 0 0 3.059764,0.46251 30.95625,30.95625 0 0 0 3.090252,0.15451 30.95625,30.95625 0 0 0 2.189532,-0.0775 30.95625,30.95625 0 0 0 3.072164,-0.37311 30.95625,30.95625 0 0 0 3.018937,-0.67748 30.95625,30.95625 0 0 0 2.936772,-0.97565 30.95625,30.95625 0 0 0 2.824116,-1.264 30.95625,30.95625 0 0 0 2.684075,-1.53944 30.95625,30.95625 0 0 0 2.517159,-1.80041 30.95625,30.95625 0 0 0 2.324921,-2.04174 30.95625,30.95625 0 0 0 2.108917,-2.26446 30.95625,30.95625 0 0 0 1.872752,-2.46341 30.95625,30.95625 0 0 0 1.617472,-2.63757 30.95625,30.95625 0 0 0 1.345655,-2.78639 30.95625,30.95625 0 0 0 1.060919,-2.9068 30.95625,30.95625 0 0 0 0.765844,-2.998267 30.95625,30.95625 0 0 0 0.462505,-3.059761 30.95625,30.95625 0 0 0 0.154511,-3.090251 30.95625,30.95625 0 0 0 -0.07752,-2.18953 A 30.95625,30.95625 0 0 0 79.188987,87.215357 30.95625,30.95625 0 0 0 78.511508,84.196421 30.95625,30.95625 0 0 0 77.535857,81.259649 30.95625,30.95625 0 0 0 76.27185,78.435532 30.95625,30.95625 0 0 0 74.731893,75.751458 30.95625,30.95625 0 0 0 72.932004,73.2343 30.95625,30.95625 0 0 0 70.890267,70.909893 30.95625,30.95625 0 0 0 68.625806,68.80046 30.95625,30.95625 0 0 0 66.162391,66.927707 30.95625,30.95625 0 0 0 63.524826,65.310235 30.95625,30.95625 0 0 0 60.738433,63.96458 a 30.95625,30.95625 0 0 0 -2.9068,-1.060918 30.95625,30.95625 0 0 0 -2.998266,-0.765844 30.95625,30.95625 0 0 0 -3.059762,-0.462502 30.95625,30.95625 0 0 0 -3.090252,-0.154514 30.95625,30.95625 0 0 0 -2.189532,0.07751 30.95625,30.95625 0 0 0 -3.072165,0.373104 30.95625,30.95625 0 0 0 -3.018939,0.677477 30.95625,30.95625 0 0 0 -2.936774,0.975651 30.95625,30.95625 0 0 0 -2.824118,1.264007 30.95625,30.95625 0 0 0 -2.684076,1.539957 30.95625,30.95625 0 0 0 -1.254704,0.897101 z"
       id="path4554"
       inkscape:connector-curvature="0" />
    <path
       style="opacity:0.5;fill:#ff0000;fill-opacity:1;stroke-width:0.23587696"
       d="m 12.700015,61.520792 a 30.95625,30.95625 0 0 0 -2.189531,0.07751 30.95625,30.95625 0 0 0 -3.072162,0.373104 30.95625,30.95625 0 0 0 -3.0189366,0.677477 30.95625,30.95625 0 0 0 -2.9367672,0.975651 30.95625,30.95625 0 0 0 -2.8241163,1.264007 30.95625,30.95625 0 0 0 -2.6840715,1.539957 30.95625,30.95625 0 0 0 -2.5171595,1.799889 30.95625,30.95625 0 0 0 -2.3249188,2.042252 30.95625,30.95625 0 0 0 -2.1089161,2.263945 30.95625,30.95625 0 0 0 -1.872753,2.463416 30.95625,30.95625 0 0 0 -1.617472,2.638081 30.95625,30.95625 0 0 0 -1.345655,2.785877 30.95625,30.95625 0 0 0 -1.060918,2.9068 30.95625,30.95625 0 0 0 -0.765845,2.998266 30.95625,30.95625 0 0 0 -0.462505,3.059761 30.95625,30.95625 0 0 0 -0.154511,3.090251 30.95625,30.95625 0 0 0 0.07751,2.190049 30.95625,30.95625 0 0 0 0.373102,3.071646 30.95625,30.95625 0 0 0 0.677479,3.018939 30.95625,30.95625 0 0 0 0.975651,2.93678 30.95625,30.95625 0 0 0 1.264007,2.82411 30.95625,30.95625 0 0 0 1.539957,2.68408 30.95625,30.95625 0 0 0 1.799889,2.51716 30.95625,30.95625 0 0 0 2.0422527,2.32492 30.95625,30.95625 0 0 0 2.2639425,2.10891 30.95625,30.95625 0 0 0 2.4634148,1.87275 30.95625,30.95625 0 0 0 2.6375645,1.61748 30.95625,30.95625 0 0 0 2.78639103,1.34565 30.95625,30.95625 0 0 0 2.90679847,1.06144 30.95625,30.95625 0 0 0 2.9982642,0.76532 30.95625,30.95625 0 0 0 3.0597581,0.46251 30.95625,30.95625 0 0 0 3.0902517,0.15451 30.95625,30.95625 0 0 0 2.18953,-0.0775 30.95625,30.95625 0 0 0 3.072164,-0.37311 30.95625,30.95625 0 0 0 3.018937,-0.67748 30.95625,30.95625 0 0 0 2.936772,-0.97565 30.95625,30.95625 0 0 0 2.824117,-1.264 30.95625,30.95625 0 0 0 2.684074,-1.53944 30.95625,30.95625 0 0 0 1.25522,-0.89762 30.95625,30.95625 0 0 1 -1.939933,-1.47485 30.95625,30.95625 0 0 1 -2.263945,-2.10891 30.95625,30.95625 0 0 1 -2.042252,-2.32492 30.95625,30.95625 0 0 1 -1.79989,-2.51716 30.95625,30.95625 0 0 1 -1.539958,-2.68408 30.95625,30.95625 0 0 1 -1.264005,-2.82411 30.95625,30.95625 0 0 1 -0.975651,-2.93678 30.95625,30.95625 0 0 1 -0.677479,-3.018939 30.95625,30.95625 0 0 1 -0.373103,-3.071646 30.95625,30.95625 0 0 1 -0.07751,-2.190049 30.95625,30.95625 0 0 1 0.154512,-3.090251 30.95625,30.95625 0 0 1 0.462505,-3.059761 30.95625,30.95625 0 0 1 0.765844,-2.998266 30.95625,30.95625 0 0 1 1.060917,-2.9068 30.95625,30.95625 0 0 1 1.345655,-2.785877 30.95625,30.95625 0 0 1 1.617472,-2.638081 30.95625,30.95625 0 0 1 1.872754,-2.463416 30.95625,30.95625 0 0 1 2.108915,-2.263945 30.95625,30.95625 0 0 1 2.324923,-2.042252 30.95625,30.95625 0 0 1 1.262455,-0.902788 30.95625,30.95625 0 0 0 -0.523999,-0.397907 30.95625,30.95625 0 0 0 -2.637565,-1.617472 30.95625,30.95625 0 0 0 -2.786393,-1.345655 30.95625,30.95625 0 0 0 -2.9068,-1.060918 30.95625,30.95625 0 0 0 -2.998266,-0.765844 30.95625,30.95625 0 0 0 -3.059761,-0.462502 30.95625,30.95625 0 0 0 -3.090251,-0.154514 z"
       id="path4552"
       inkscape:connector-curvature="0" />
    <path
       id="path4566"
       d="m -10.571964,141.93813 a 30.95625,30.95625 0 0 0 -1.262456,0.90279 30.95625,30.95625 0 0 0 -2.324922,2.04225 30.95625,30.95625 0 0 0 -2.108915,2.26395 30.95625,30.95625 0 0 0 -1.872754,2.46341 30.95625,30.95625 0 0 0 -1.617473,2.63808 30.95625,30.95625 0 0 0 -1.345654,2.78588 30.95625,30.95625 0 0 0 -1.060917,2.9068 30.95625,30.95625 0 0 0 -0.765845,2.99827 30.95625,30.95625 0 0 0 -0.462504,3.05976 30.95625,30.95625 0 0 0 -0.154512,3.09025 30.95625,30.95625 0 0 0 0.07751,2.19005 30.95625,30.95625 0 0 0 0.373104,3.07164 30.95625,30.95625 0 0 0 0.677478,3.01894 30.95625,30.95625 0 0 0 0.975651,2.93677 30.95625,30.95625 0 0 0 1.264006,2.82412 30.95625,30.95625 0 0 0 1.539957,2.68407 30.95625,30.95625 0 0 0 1.79989,2.51716 30.95625,30.95625 0 0 0 2.042253,2.32492 30.95625,30.95625 0 0 0 2.263944,2.10892 30.95625,30.95625 0 0 0 1.939934,1.47484 30.95625,30.95625 0 0 0 1.2619383,-0.90278 30.95625,30.95625 0 0 0 2.3249226,-2.04174 30.95625,30.95625 0 0 0 2.1089151,-2.26446 30.95625,30.95625 0 0 0 1.8727539,-2.46342 30.95625,30.95625 0 0 0 1.6174724,-2.63756 30.95625,30.95625 0 0 0 1.34565424,-2.78639 30.95625,30.95625 0 0 0 1.06091714,-2.9068 30.95625,30.95625 0 0 0 0.76584472,-2.99827 30.95625,30.95625 0 0 0 0.462504,-3.05976 30.95625,30.95625 0 0 0 0.1545126,-3.09025 30.95625,30.95625 0 0 0 -0.077515,-2.18953 30.95625,30.95625 0 0 0 -0.3731038,-3.07217 30.95625,30.95625 0 0 0 -0.677478,-3.01893 30.95625,30.95625 0 0 0 -0.97565105,-2.93677 30.95625,30.95625 0 0 0 -1.26400551,-2.82412 30.95625,30.95625 0 0 0 -1.53995764,-2.68407 30.95625,30.95625 0 0 0 -1.79989,-2.51716 30.95625,30.95625 0 0 0 -2.0422526,-2.32441 30.95625,30.95625 0 0 0 -2.2639446,-2.10943 30.95625,30.95625 0 0 0 -1.9394158,-1.47485 z"
       style="opacity:1;fill:#008000;fill-opacity:1;stroke-width:0.23587696"
       inkscape:connector-curvature="0" />
    <path
       id="path4570"
       d="m -28.575,136.13331 a 30.95625,30.95625 0 0 0 -2.18953,0.0775 30.95625,30.95625 0 0 0 -3.072164,0.37311 30.95625,30.95625 0 0 0 -3.018938,0.67747 30.95625,30.95625 0 0 0 -2.936769,0.97566 30.95625,30.95625 0 0 0 -2.824118,1.264 30.95625,30.95625 0 0 0 -2.684073,1.53996 30.95625,30.95625 0 0 0 -2.517162,1.79989 30.95625,30.95625 0 0 0 -2.32492,2.04225 30.95625,30.95625 0 0 0 -2.108917,2.26395 30.95625,30.95625 0 0 0 -1.872752,2.46341 30.95625,30.95625 0 0 0 -1.617472,2.63808 30.95625,30.95625 0 0 0 -1.345655,2.78588 30.95625,30.95625 0 0 0 -1.060919,2.9068 30.95625,30.95625 0 0 0 -0.765844,2.99827 30.95625,30.95625 0 0 0 -0.462505,3.05976 30.95625,30.95625 0 0 0 -0.154511,3.09025 30.95625,30.95625 0 0 0 0.07752,2.19005 30.95625,30.95625 0 0 0 0.373102,3.07164 30.95625,30.95625 0 0 0 0.677479,3.01894 30.95625,30.95625 0 0 0 0.975651,2.93677 30.95625,30.95625 0 0 0 1.264007,2.82412 30.95625,30.95625 0 0 0 1.539957,2.68407 30.95625,30.95625 0 0 0 1.799889,2.51716 30.95625,30.95625 0 0 0 2.042253,2.32492 30.95625,30.95625 0 0 0 2.263944,2.10892 30.95625,30.95625 0 0 0 2.463416,1.87275 30.95625,30.95625 0 0 0 2.637565,1.61748 30.95625,30.95625 0 0 0 2.786393,1.34565 30.95625,30.95625 0 0 0 2.9068,1.06143 30.95625,30.95625 0 0 0 2.998266,0.76533 30.95625,30.95625 0 0 0 3.059761,0.46251 30.95625,30.95625 0 0 0 3.090251,0.15451 30.95625,30.95625 0 0 0 2.189531,-0.0775 30.95625,30.95625 0 0 0 3.072164,-0.3731 30.95625,30.95625 0 0 0 3.018937,-0.67748 30.95625,30.95625 0 0 0 2.936771,-0.97565 30.95625,30.95625 0 0 0 2.824117,-1.264 30.95625,30.95625 0 0 0 2.684074,-1.53945 30.95625,30.95625 0 0 0 1.255221,-0.89762 30.95625,30.95625 0 0 1 -1.939934,-1.47484 30.95625,30.95625 0 0 1 -2.263944,-2.10892 30.95625,30.95625 0 0 1 -2.042253,-2.32492 30.95625,30.95625 0 0 1 -1.79989,-2.51716 30.95625,30.95625 0 0 1 -1.539957,-2.68407 30.95625,30.95625 0 0 1 -1.264006,-2.82412 30.95625,30.95625 0 0 1 -0.975651,-2.93677 30.95625,30.95625 0 0 1 -0.677478,-3.01894 30.95625,30.95625 0 0 1 -0.373104,-3.07164 30.95625,30.95625 0 0 1 -0.07751,-2.19005 30.95625,30.95625 0 0 1 0.154512,-3.09025 30.95625,30.95625 0 0 1 0.462504,-3.05976 30.95625,30.95625 0 0 1 0.765845,-2.99827 30.95625,30.95625 0 0 1 1.060917,-2.9068 30.95625,30.95625 0 0 1 1.345654,-2.78588 30.95625,30.95625 0 0 1 1.617473,-2.63808 30.95625,30.95625 0 0 1 1.872754,-2.46341 30.95625,30.95625 0 0 1 2.108915,-2.26395 30.95625,30.95625 0 0 1 2.324922,-2.04225 30.95625,30.95625 0 0 1 1.262456,-0.90279 30.95625,30.95625 0 0 0 -0.523999,-0.39791 30.95625,30.95625 0 0 0 -2.637565,-1.61747 30.95625,30.95625 0 0 0 -2.786394,-1.34565 30.95625,30.95625 0 0 0 -2.906799,-1.06092 30.95625,30.95625 0 0 0 -2.998266,-0.76585 30.95625,30.95625 0 0 0 -3.059761,-0.4625 30.95625,30.95625 0 0 0 -3.090252,-0.15451 z"
       style="opacity:0.5;fill:#ff0000;fill-opacity:1;stroke-width:0.23587696"
       inkscape:connector-curvature="0" />
    <path
       inkscape:connector-curvature="0"
       style="opacity:1;fill:#008000;fill-opacity:1;stroke-width:0.23587696"
       d="m 68.803063,141.93813 a 30.95625,30.95625 0 0 0 -1.262456,0.90279 30.95625,30.95625 0 0 0 -2.324922,2.04225 30.95625,30.95625 0 0 0 -2.108915,2.26395 30.95625,30.95625 0 0 0 -1.872754,2.46341 30.95625,30.95625 0 0 0 -1.617473,2.63808 30.95625,30.95625 0 0 0 -1.345654,2.78588 30.95625,30.95625 0 0 0 -1.060917,2.9068 30.95625,30.95625 0 0 0 -0.765845,2.99827 30.95625,30.95625 0 0 0 -0.462504,3.05976 30.95625,30.95625 0 0 0 -0.154512,3.09025 30.95625,30.95625 0 0 0 0.07751,2.19005 30.95625,30.95625 0 0 0 0.373104,3.07164 30.95625,30.95625 0 0 0 0.677478,3.01894 30.95625,30.95625 0 0 0 0.975651,2.93677 30.95625,30.95625 0 0 0 1.264006,2.82412 30.95625,30.95625 0 0 0 1.539957,2.68407 30.95625,30.95625 0 0 0 1.79989,2.51716 30.95625,30.95625 0 0 0 2.042253,2.32492 30.95625,30.95625 0 0 0 2.263944,2.10892 30.95625,30.95625 0 0 0 1.939934,1.47484 30.95625,30.95625 0 0 0 1.261938,-0.90278 30.95625,30.95625 0 0 0 2.324923,-2.04174 30.95625,30.95625 0 0 0 2.108915,-2.26446 30.95625,30.95625 0 0 0 1.872754,-2.46342 30.95625,30.95625 0 0 0 1.617472,-2.63756 30.95625,30.95625 0 0 0 1.345655,-2.78639 30.95625,30.95625 0 0 0 1.060917,-2.9068 30.95625,30.95625 0 0 0 0.765845,-2.99827 30.95625,30.95625 0 0 0 0.462504,-3.05976 30.95625,30.95625 0 0 0 0.154512,-3.09025 30.95625,30.95625 0 0 0 -0.07751,-2.18953 30.95625,30.95625 0 0 0 -0.373104,-3.07217 30.95625,30.95625 0 0 0 -0.677478,-3.01893 30.95625,30.95625 0 0 0 -0.975651,-2.93677 30.95625,30.95625 0 0 0 -1.264005,-2.82412 30.95625,30.95625 0 0 0 -1.539958,-2.68407 30.95625,30.95625 0 0 0 -1.79989,-2.51716 30.95625,30.95625 0 0 0 -2.042252,-2.32441 30.95625,30.95625 0 0 0 -2.263945,-2.10943 30.95625,30.95625 0 0 0 -1.939417,-1.47485 z"
       id="path4583" />
    <path
       inkscape:connector-curvature="0"
       style="opacity:0.5;fill:#0000ff;fill-opacity:1;stroke-width:0.23587696"
       d="m 68.803063,141.93811 a 30.95625,30.95625 0 0 1 1.939416,1.47485 30.95625,30.95625 0 0 1 2.263945,2.10943 30.95625,30.95625 0 0 1 2.042252,2.32441 30.95625,30.95625 0 0 1 1.79989,2.51716 30.95625,30.95625 0 0 1 1.539958,2.68407 30.95625,30.95625 0 0 1 1.264006,2.82412 30.95625,30.95625 0 0 1 0.975651,2.93677 30.95625,30.95625 0 0 1 0.677478,3.01893 30.95625,30.95625 0 0 1 0.373103,3.07217 30.95625,30.95625 0 0 1 0.07751,2.18953 30.95625,30.95625 0 0 1 -0.154512,3.09025 30.95625,30.95625 0 0 1 -0.462504,3.05976 30.95625,30.95625 0 0 1 -0.765845,2.99827 30.95625,30.95625 0 0 1 -1.060917,2.9068 30.95625,30.95625 0 0 1 -1.345654,2.78639 30.95625,30.95625 0 0 1 -1.617473,2.63756 30.95625,30.95625 0 0 1 -1.872754,2.46342 30.95625,30.95625 0 0 1 -2.108915,2.26446 30.95625,30.95625 0 0 1 -2.324922,2.04174 30.95625,30.95625 0 0 1 -1.261939,0.90278 30.95625,30.95625 0 0 0 0.523482,0.39791 30.95625,30.95625 0 0 0 2.638082,1.61748 30.95625,30.95625 0 0 0 2.785877,1.34565 30.95625,30.95625 0 0 0 2.906799,1.06143 30.95625,30.95625 0 0 0 2.998267,0.76533 30.95625,30.95625 0 0 0 3.059761,0.46251 30.95625,30.95625 0 0 0 3.090251,0.15451 30.95625,30.95625 0 0 0 2.18953,-0.0775 30.95625,30.95625 0 0 0 3.072164,-0.3731 30.95625,30.95625 0 0 0 3.018937,-0.67748 30.95625,30.95625 0 0 0 2.936771,-0.97565 30.95625,30.95625 0 0 0 2.824122,-1.264 30.95625,30.95625 0 0 0 2.68409,-1.53945 30.95625,30.95625 0 0 0 2.51717,-1.8004 30.95625,30.95625 0 0 0 2.32493,-2.04174 30.95625,30.95625 0 0 0 2.10893,-2.26446 30.95625,30.95625 0 0 0 1.87277,-2.46342 30.95625,30.95625 0 0 0 1.61748,-2.63756 30.95625,30.95625 0 0 0 1.34566,-2.78639 30.95625,30.95625 0 0 0 1.06092,-2.9068 30.95625,30.95625 0 0 0 0.76585,-2.99827 30.95625,30.95625 0 0 0 0.46251,-3.05976 30.95625,30.95625 0 0 0 0.15451,-3.09025 30.95625,30.95625 0 0 0 -0.0775,-2.18953 30.95625,30.95625 0 0 0 -0.3731,-3.07217 30.95625,30.95625 0 0 0 -0.67748,-3.01893 30.95625,30.95625 0 0 0 -0.97566,-2.93677 30.95625,30.95625 0 0 0 -1.26401,-2.82412 30.95625,30.95625 0 0 0 -1.53997,-2.68407 30.95625,30.95625 0 0 0 -1.7999,-2.51716 30.95625,30.95625 0 0 0 -2.04175,-2.32441 30.95625,30.95625 0 0 0 -2.26447,-2.10943 30.95625,30.95625 0 0 0 -2.46343,-1.87276 30.95625,30.95625 0 0 0 -2.63758,-1.61747 30.95625,30.95625 0 0 0 -2.786402,-1.34565 30.95625,30.95625 0 0 0 -2.906799,-1.06092 30.95625,30.95625 0 0 0 -2.998267,-0.76585 30.95625,30.95625 0 0 0 -3.059761,-0.4625 30.95625,30.95625 0 0 0 -3.09025,-0.15451 30.95625,30.95625 0 0 0 -2.189531,0.0775 30.95625,30.95625 0 0 0 -3.072164,0.37311 30.95625,30.95625 0 0 0 -3.018937,0.67747 30.95625,30.95625 0 0 0 -2.936771,0.97566 30.95625,30.95625 0 0 0 -2.824117,1.264 30.95625,30.95625 0 0 0 -2.684074,1.53996 30.95625,30.95625 0 0 0 -1.254704,0.8971 z"
       id="path4585" />
  </g>
</svg>
